<svg width="35" height="35" viewBox="0 0 35 35" fill="none" xmlns="http://www.w3.org/2000/svg">
<path d="M8.75 5.46875V4.375C8.75252 3.50553 9.09904 2.6724 9.71384 2.0576C10.3287 1.44279 11.1618 1.09627 12.0312 1.09375H27.3438C28.2132 1.09627 29.0463 1.44279 29.6612 2.0576C30.276 2.6724 30.6225 3.50553 30.625 4.375V29.5312L25.1562 25.1562" stroke="black" stroke-width="2.1875" stroke-linejoin="round"/>
<path d="M21.875 6.5625H7.65625C6.78678 6.56502 5.95365 6.91154 5.33885 7.52635C4.72404 8.14115 4.37752 8.97428 4.375 9.84375V33.9062L14.7656 25.1562L25.1562 33.9062V9.84375C25.1537 8.97428 24.8072 8.14115 24.1924 7.52635C23.5776 6.91154 22.7445 6.56502 21.875 6.5625Z" stroke="black" stroke-width="2.1875" stroke-linejoin="round"/>
</svg>
