<svg width="221" height="211" viewBox="0 0 221 211" fill="none" xmlns="http://www.w3.org/2000/svg">
<path fill-rule="evenodd" clip-rule="evenodd" d="M146.825 42.1366L153.101 63.9281C155.956 63.1058 158.933 62.8105 161.861 63.0589C164.789 63.3074 167.611 64.0947 170.166 65.376C172.722 66.6573 174.96 68.4074 176.753 70.5265C178.547 72.6456 179.861 75.0922 180.619 77.7264C181.378 80.3607 181.567 83.1311 181.175 85.8796C180.783 88.628 179.819 91.3006 178.336 93.7447C176.854 96.1888 174.883 98.3567 172.535 100.124C170.188 101.892 167.51 103.225 164.655 104.047L170.432 124.107C173.605 135.127 161.786 145.345 150.322 141.484L132.416 135.446C122.846 132.224 112.493 131.214 102.215 132.5L107.692 151.517C108.952 155.888 108.456 160.605 106.297 164.799C104.138 168.993 100.461 172.381 95.9435 174.338C91.426 176.295 86.3727 176.689 81.7151 175.449C77.0574 174.208 73.1095 171.416 70.599 167.587L48.6375 134.114C43.2582 130.832 39.0307 126.173 36.4303 120.66C33.8299 115.148 32.9597 109 33.9174 102.909C34.8752 96.8179 37.6229 91.0244 41.8518 86.1798C46.0807 81.3352 51.6231 77.6316 57.8559 75.4853L79.4042 68.063C89.9472 64.4317 99.5234 58.5494 107.345 50.8997L121.698 36.8602C129.87 28.8806 143.852 31.8125 146.825 42.1366ZM69.8658 139.152L83.478 159.902C84.135 160.907 85.1695 161.641 86.3907 161.967C87.6118 162.293 88.9371 162.19 90.1217 161.676C91.3064 161.163 92.2704 160.274 92.8358 159.174C93.4012 158.074 93.5298 156.837 93.1978 155.691L87.4015 135.565L75.9284 138.239C73.932 138.705 71.9036 139.01 69.8658 139.152ZM132.331 46.3108L117.973 60.359C109.247 68.8852 98.7166 75.6097 87.1142 80.0642L98.3197 118.973C111.744 116.889 125.414 117.999 138.032 122.243L155.938 128.281L132.331 46.3108ZM72.851 85.0409L62.4968 88.6021C57.6799 90.259 53.6262 93.5175 51.1359 97.7343C48.6456 101.951 47.8996 106.82 49.0452 111.38C50.1908 115.939 53.1447 119.858 57.3239 122.363C61.503 124.868 66.6037 125.777 71.6191 124.911L72.88 124.656L83.5424 122.165L72.851 85.0409ZM156.952 77.3012L160.804 90.6743C162.65 90.1405 164.239 88.9762 165.245 87.4195C166.251 85.8627 166.599 84.031 166.217 82.2984C165.836 80.5659 164.753 79.0634 163.191 78.0979C161.629 77.1325 159.706 76.7769 157.814 77.1038L156.952 77.3012Z" fill="#F2F2F2"/>
</svg>
