<svg width="122" height="134" viewBox="0 0 122 134" fill="none" xmlns="http://www.w3.org/2000/svg">
<g clip-path="url(#clip0_963_2977)">
<path d="M29.2859 27.3792L28.9012 23.5548C28.6032 20.5138 29.3938 17.4916 31.1001 15.1485C32.8064 12.8053 35.2898 11.3316 38.0078 11.0493L85.8912 6.23277C88.6109 5.96811 91.3381 6.91768 93.4769 8.87405C95.6157 10.8304 96.9923 13.6346 97.306 16.674L106.154 104.636L87.514 91.0588" stroke="#F2F2F2" stroke-width="11" stroke-linejoin="round"/>
<path d="M70.7131 27.0752L26.25 31.5477C23.532 31.83 21.0486 33.3037 19.3423 35.6469C17.636 37.99 16.8454 41.0122 17.1434 44.0532L25.6067 128.191L55.0214 94.3271L90.5913 121.654L82.1279 37.5165C81.8142 34.477 80.4376 31.6729 78.2988 29.7165C76.16 27.7601 73.4329 26.8106 70.7131 27.0752Z" stroke="#F2F2F2" stroke-width="11" stroke-linejoin="round"/>
</g>
<defs>
<clipPath id="clip0_963_2977">
<rect width="110" height="123" fill="white" transform="translate(0 11.0093) rotate(-5.744)"/>
</clipPath>
</defs>
</svg>
