<svg width="8" height="29" viewBox="0 0 8 29" fill="none" xmlns="http://www.w3.org/2000/svg">
<path d="M7.11272 3.98701C7.11285 4.39582 7.03246 4.80065 6.87614 5.17838C6.71982 5.55612 6.49062 5.89937 6.20165 6.18853C5.91267 6.47769 5.56957 6.7071 5.19194 6.86367C4.8143 7.02023 4.40952 7.10088 4.00072 7.10101C3.59191 7.10114 3.18709 7.02075 2.80935 6.86443C2.43161 6.70811 2.08836 6.47892 1.7992 6.18994C1.51004 5.90097 1.28063 5.55787 1.12407 5.18023C0.967501 4.80259 0.88685 4.39782 0.886719 3.98901C0.886454 3.16339 1.21418 2.37148 1.79779 1.7875C2.3814 1.20351 3.1731 0.875278 3.99872 0.875013C4.82434 0.874748 5.61625 1.20247 6.20024 1.78608C6.78422 2.36969 7.11245 3.16139 7.11272 3.98701Z" fill="black"/>
<path d="M7.11267 14.671C7.11267 12.9523 5.71938 11.559 4.00067 11.559C2.28196 11.559 0.888672 12.9523 0.888672 14.671C0.888672 16.3897 2.28196 17.783 4.00067 17.783C5.71938 17.783 7.11267 16.3897 7.11267 14.671Z" fill="black"/>
<path d="M7.11267 25.357C7.11267 23.6383 5.71938 22.245 4.00067 22.245C2.28196 22.245 0.888672 23.6383 0.888672 25.357C0.888672 27.0757 2.28196 28.469 4.00067 28.469C5.71938 28.469 7.11267 27.0757 7.11267 25.357Z" fill="black"/>
</svg>
