<svg width="22" height="22" viewBox="0 0 22 22" fill="none" xmlns="http://www.w3.org/2000/svg">
<path d="M4.33561 7.8705C3.50121 7.87007 2.68444 8.11981 1.9834 8.58973C1.28236 9.05965 0.726877 9.72975 0.383671 10.5195C0.0404644 11.3093 -0.0758686 12.1852 0.0486488 13.042C0.173168 13.8988 0.533239 14.7001 1.08561 15.3495V20.5245C1.08533 20.669 1.12078 20.8111 1.18854 20.9372C1.25631 21.0634 1.35413 21.1693 1.47264 21.245C1.59114 21.3206 1.72637 21.3634 1.86536 21.3692C2.00435 21.3751 2.14245 21.3437 2.26645 21.2782L2.36395 21.2164L4.33561 19.7854L6.30728 21.2164C6.42114 21.2989 6.55349 21.3498 6.69168 21.3642C6.82987 21.3785 6.96929 21.3558 7.09663 21.2983C7.22398 21.2407 7.33499 21.1502 7.41908 21.0354C7.50316 20.9207 7.55752 20.7854 7.57694 20.6426L7.58453 20.5245V15.3472C8.13615 14.6978 8.49562 13.8969 8.61979 13.0406C8.74396 12.1843 8.62757 11.3089 8.28458 10.5196C7.94159 9.73027 7.38656 9.06048 6.68611 8.59059C5.98565 8.1207 5.16951 7.87067 4.33561 7.8705ZM2.71061 16.5442C3.22691 16.7611 3.77869 16.8722 4.33561 16.8716C4.89253 16.8722 5.44431 16.7611 5.96061 16.5442V18.9056L4.80036 18.0652C4.68158 17.9788 4.54269 17.927 4.3981 17.9151C4.25351 17.9032 4.10849 17.9318 3.97811 17.9977L3.86978 18.0652L2.71061 18.9056V16.5442ZM2.98145 3.81212e-09C2.2228 -3.90816e-05 1.49272 0.300479 0.940121 0.840255C0.387524 1.38003 0.054039 2.1184 0.00769424 2.90475L0.00227737 3.09375L0.00119591 8.9955C0.440523 8.3881 0.993185 7.87885 1.6262 7.49812L1.62728 3.09375C1.62712 2.74561 1.75133 2.40979 1.97587 2.15126C2.2004 1.89274 2.50929 1.7299 2.84278 1.69425L2.98145 1.6875H18.6898C19.025 1.68734 19.3484 1.81633 19.5974 2.04949C19.8463 2.28266 20.0031 2.60344 20.0374 2.94975L20.0439 3.09375V13.7812C20.0439 14.5091 19.5109 15.1087 18.8284 15.1796L18.6898 15.1875L9.02428 15.1886L8.89103 15.417L8.74586 15.6375L8.66895 15.7432L8.67003 16.875H18.6898C19.4486 16.875 20.1788 16.5743 20.7315 16.0343C21.2841 15.4943 21.6174 14.7557 21.6635 13.9691L21.6689 13.7812V3.09375C21.669 2.30593 21.3796 1.54777 20.8598 0.973915C20.34 0.400064 19.629 0.0537539 18.8718 0.00562513L18.6898 3.81212e-09H2.98145ZM4.33561 9.558C5.05405 9.558 5.74306 9.85437 6.25107 10.3819C6.75909 10.9095 7.04449 11.625 7.04449 12.3711C7.04449 13.1171 6.75909 13.8326 6.25107 14.3602C5.74306 14.8877 5.05405 15.1841 4.33561 15.1841C3.61717 15.1841 2.92816 14.8877 2.42015 14.3602C1.91214 13.8326 1.62674 13.1171 1.62674 12.3711C1.62674 11.625 1.91214 10.9095 2.42015 10.3819C2.92816 9.85437 3.61717 9.558 4.33561 9.558ZM11.6481 10.683C11.4423 10.6831 11.2441 10.7643 11.0937 10.9102C10.9432 11.0562 10.8518 11.256 10.8378 11.4692C10.8237 11.6825 10.8882 11.8934 11.0181 12.0592C11.148 12.225 11.3337 12.3335 11.5376 12.3626L11.6481 12.3705H16.5231C16.729 12.3704 16.9271 12.2892 17.0776 12.1433C17.228 11.9973 17.3194 11.7975 17.3335 11.5843C17.3475 11.371 17.2831 11.1601 17.1531 10.9943C17.0232 10.8285 16.8375 10.72 16.6336 10.6909L16.5231 10.683H11.6481ZM5.14811 4.4955C4.94225 4.49556 4.74409 4.57677 4.59367 4.72272C4.44325 4.86866 4.35178 5.06846 4.33775 5.28174C4.32372 5.49502 4.38817 5.70588 4.51808 5.87171C4.64799 6.03754 4.83368 6.14599 5.03761 6.17512L5.14811 6.183H16.5231C16.729 6.18293 16.9271 6.10172 17.0776 5.95578C17.228 5.80984 17.3194 5.61004 17.3335 5.39676C17.3475 5.18348 17.2831 4.97262 17.1531 4.80679C17.0232 4.64096 16.8375 4.53251 16.6336 4.50337L16.5231 4.4955H5.14811Z" fill="black"/>
</svg>
