<svg width="24" height="21" viewBox="0 0 24 21" fill="none" xmlns="http://www.w3.org/2000/svg">
<path d="M21.5819 19.8947C22.2468 19.8947 22.8163 19.6781 23.2903 19.2448C23.7642 18.8116 24.0008 18.2914 24 17.6842V2.21053C24 1.60263 23.763 1.08205 23.2891 0.648791C22.8151 0.215528 22.246 -0.000734965 21.5819 1.87651e-06H4.65491C3.98993 1.87651e-06 3.42045 0.216633 2.9465 0.649897C2.47255 1.08316 2.23597 1.60337 2.23678 2.21053V8.4829C2.80101 8.225 3.39063 8.036 4.00564 7.9159C4.62066 7.79579 5.2401 7.73611 5.86398 7.73684C6.44836 7.73684 7.00252 7.78768 7.52645 7.88937C8.05038 7.99105 8.56423 8.13363 9.06801 8.31711C9.00756 8.1329 8.96202 7.94868 8.93139 7.76447C8.90075 7.58026 8.88584 7.38684 8.88665 7.18421C8.88665 6.11579 9.29975 5.20395 10.1259 4.44869C10.9521 3.69342 11.9496 3.31579 13.1184 3.31579C14.2872 3.31579 15.2846 3.69342 16.1108 4.44869C16.937 5.20395 17.3501 6.11579 17.3501 7.18421C17.3501 8.25263 16.937 9.16447 16.1108 9.91974C15.2846 10.675 14.2872 11.0526 13.1184 11.0526H12.8161C13.0781 11.3842 13.3046 11.739 13.4956 12.117C13.6866 12.495 13.8531 12.8863 13.995 13.2908C15.4861 13.3829 16.8717 13.7053 18.1517 14.2579C19.4317 14.8105 20.5751 15.5289 21.5819 16.4132V17.6842H13.9647C13.8237 18.0895 13.6625 18.4763 13.4811 18.8447C13.2997 19.2132 13.0781 19.5632 12.8161 19.8947H21.5819ZM7.07305 21L7.43577 19.3421C7.67758 19.25 7.90449 19.1531 8.11648 19.0514C8.32846 18.9497 8.54489 18.8256 8.76574 18.6789L10.5189 19.1763L11.728 17.2974L10.3375 16.1921C10.3778 15.9342 10.398 15.6947 10.398 15.4737C10.398 15.2526 10.3778 15.0132 10.3375 14.7553L11.728 13.65L10.5189 11.7711L8.76574 12.2684C8.54408 12.1211 8.32725 11.9969 8.11526 11.8959C7.90327 11.795 7.67677 11.6981 7.43577 11.6053L7.07305 9.94737H4.65491L4.29219 11.6053C4.05038 11.6974 3.82348 11.7987 3.61149 11.9092C3.3995 12.0197 3.18307 12.1579 2.96222 12.3237L1.20907 11.7711L1.90735e-06 13.7053L1.39043 14.8105C1.35013 15.0316 1.32998 15.2618 1.32998 15.5013C1.32998 15.7408 1.35013 15.9711 1.39043 16.1921L1.90735e-06 17.2974L1.20907 19.1763L2.96222 18.6789C3.18388 18.8263 3.4003 18.9508 3.61149 19.0525C3.82267 19.1542 4.04957 19.2507 4.29219 19.3421L4.65491 21H7.07305ZM5.86398 17.6842C5.19899 17.6842 4.62952 17.4676 4.15557 17.0343C3.68161 16.6011 3.44504 16.0808 3.44584 15.4737C3.44584 14.8658 3.68282 14.3452 4.15678 13.9119C4.63073 13.4787 5.1998 13.2624 5.86398 13.2632C6.52897 13.2632 7.09844 13.4798 7.57239 13.9131C8.04635 14.3463 8.28292 14.8665 8.28212 15.4737C8.28212 16.0816 8.04514 16.6022 7.57118 17.0354C7.09723 17.4687 6.52816 17.6849 5.86398 17.6842Z" fill="black"/>
</svg>
