<svg width="96" height="70" viewBox="0 0 96 70" fill="none" xmlns="http://www.w3.org/2000/svg">
<path d="M47.4023 0.571999C48.8263 1.092 49.8623 2.236 50.5823 3.816C64.2103 27.784 88.4223 34.2 88.6623 34.264C88.6863 34.272 88.7023 34.296 88.7263 34.3C88.7743 34.312 88.8183 34.308 88.8663 34.324C88.9823 34.368 100.126 39.048 94.3223 54.188C92.7703 58.028 88.3743 64.28 81.7543 64.28C81.1183 64.28 80.4543 64.2 79.7743 64.08L79.3903 65.068C78.2863 67.908 75.5503 69.72 72.5943 69.72C72.1543 69.72 71.7063 69.68 71.2623 69.596L60.1063 67.524C58.0183 67.136 56.2063 65.864 55.1343 64.028C54.3583 62.696 54.0463 61.168 54.1863 59.668C41.7543 59.284 32.4623 61.532 28.9303 62.552C28.5783 62.704 28.2463 62.768 27.9063 62.86C27.5863 62.96 27.3623 63.036 27.3423 63.044C27.1023 63.136 26.8583 63.148 26.6183 63.12C26.5543 63.124 26.4823 63.16 26.4183 63.16C25.8463 63.16 25.2943 63.064 24.7623 62.872C17.7623 60.324 19.7943 43.324 25.4143 27.848C31.0463 12.368 40.3863 -1.96 47.4023 0.571999ZM40.5903 41.972C41.6903 39.588 42.7503 37.112 43.7023 34.492C44.3663 32.664 44.9383 30.908 45.4583 29.2C45.0383 29.124 44.6103 29.08 44.1783 29.08C40.3063 29.08 37.1583 32.208 37.1583 36.06C37.1543 38.532 38.5183 40.724 40.5903 41.972ZM91.3143 53.004C94.2423 45.368 92.1343 41.184 90.1063 39.096C90.0583 43.592 88.7903 51.828 81.7783 61.024C87.9583 61.008 91.1743 53.348 91.3143 53.004ZM57.9343 62.4C58.5303 63.424 59.5343 64.132 60.6983 64.344L71.8583 66.416C73.7623 66.776 75.6743 65.716 76.3823 63.9L76.6303 63.264C69.8383 61.276 63.3863 60.248 57.5103 59.852C57.3943 60.728 57.4783 61.62 57.9343 62.4ZM78.1623 60.332C86.9063 49.62 87.0303 40.06 86.7903 37.096C82.2383 35.708 64.6583 29.38 51.8423 11.676C51.7663 18.412 49.7903 27.22 46.7423 35.6C43.8143 43.66 40.0783 50.904 36.2223 56C35.6863 56.708 35.1663 57.26 34.6423 57.868C43.8303 56.12 59.7103 54.784 78.1623 60.332ZM25.8703 59.832C26.0583 59.9 26.2943 59.912 26.5503 59.896C26.8343 59.8 27.3223 59.644 28.0143 59.436C29.4463 58.708 31.3543 57.072 33.6423 54.048C35.5463 51.532 37.4143 48.436 39.1743 44.968C35.9783 43.184 33.9183 39.796 33.9183 36.056C33.9183 30.424 38.5183 25.836 44.1743 25.836C44.9063 25.836 45.6303 25.928 46.3423 26.08C48.9663 16.18 49.0903 8.776 47.7983 5.456C47.7823 5.428 47.7663 5.404 47.7503 5.376C47.7303 5.34 47.7303 5.296 47.7103 5.26C47.3343 4.388 46.8583 3.816 46.2943 3.612C46.1143 3.544 45.9183 3.512 45.7063 3.512C42.1743 3.512 34.4263 12.524 28.4583 28.952C22.1343 46.364 22.6863 58.672 25.8703 59.832Z" fill="#4FFF96"/>
<path d="M21.5516 22.396C21.1276 22.396 20.7036 22.232 20.3876 21.9L10.2916 11.42C9.67157 10.776 9.69157 9.75199 10.3356 9.13199C10.9796 8.51199 12.0036 8.52799 12.6236 9.17599L22.7196 19.656C23.3396 20.3 23.3196 21.324 22.6756 21.944C22.3596 22.248 21.9596 22.396 21.5516 22.396Z" fill="#4FFF96"/>
<path d="M1.51468 34.2679L16.0347 33.3679C16.9467 33.3679 17.6947 33.9959 17.7507 34.8839C17.8067 35.7719 17.1267 36.5439 16.2347 36.5999L1.71469 37.4999C1.67869 37.4999 1.64668 37.5039 1.61068 37.5039C0.762682 37.5039 0.0506821 36.8399 -0.00131798 35.9839C-0.053318 35.0919 0.62668 34.3239 1.51468 34.2679Z" fill="#4FFF96"/>
<path d="M16.8745 28.9441L5.46647 24.5721C4.63047 24.2561 4.21447 23.3201 4.53447 22.4841C4.85447 21.6521 5.79447 21.2321 6.62247 21.5561L18.0305 25.9281C18.8665 26.2481 19.2825 27.1801 18.9625 28.0161C18.7145 28.6601 18.1025 29.0561 17.4505 29.0561C17.2625 29.0521 17.0665 29.0161 16.8745 28.9441Z" fill="#4FFF96"/>
</svg>
