<svg width="76" height="70" viewBox="0 0 76 70" fill="none" xmlns="http://www.w3.org/2000/svg">
<path d="M27.4023 0.571999C28.8263 1.092 29.8623 2.236 30.5823 3.816C44.2103 27.784 68.4223 34.2 68.6623 34.264C68.6863 34.272 68.7023 34.296 68.7263 34.3C68.7743 34.312 68.8183 34.308 68.8663 34.324C68.9823 34.368 80.1263 39.048 74.3223 54.188C72.7703 58.028 68.3743 64.28 61.7543 64.28C61.1183 64.28 60.4543 64.2 59.7743 64.08L59.3903 65.068C58.2863 67.908 55.5503 69.72 52.5943 69.72C52.1543 69.72 51.7063 69.68 51.2623 69.596L40.1063 67.524C38.0183 67.136 36.2063 65.864 35.1343 64.028C34.3583 62.696 34.0463 61.168 34.1863 59.668C21.7543 59.284 12.4623 61.532 8.93027 62.552C8.57827 62.704 8.24626 62.768 7.90627 62.86C7.58627 62.96 7.36227 63.036 7.34227 63.044C7.10227 63.136 6.85827 63.148 6.61827 63.12C6.55427 63.124 6.48227 63.16 6.41827 63.16C5.84627 63.16 5.29427 63.064 4.76227 62.872C-2.23773 60.324 -0.205734 43.324 5.41427 27.848C11.0463 12.368 20.3863 -1.96 27.4023 0.571999ZM20.5903 41.972C21.6903 39.588 22.7503 37.112 23.7023 34.492C24.3663 32.664 24.9383 30.908 25.4583 29.2C25.0383 29.124 24.6103 29.08 24.1783 29.08C20.3063 29.08 17.1583 32.208 17.1583 36.06C17.1543 38.532 18.5183 40.724 20.5903 41.972ZM71.3143 53.004C74.2423 45.368 72.1343 41.184 70.1063 39.096C70.0583 43.592 68.7903 51.828 61.7783 61.024C67.9583 61.008 71.1743 53.348 71.3143 53.004ZM37.9343 62.4C38.5303 63.424 39.5343 64.132 40.6983 64.344L51.8583 66.416C53.7623 66.776 55.6743 65.716 56.3823 63.9L56.6303 63.264C49.8383 61.276 43.3863 60.248 37.5103 59.852C37.3943 60.728 37.4783 61.62 37.9343 62.4ZM58.1623 60.332C66.9063 49.62 67.0303 40.06 66.7903 37.096C62.2383 35.708 44.6583 29.38 31.8423 11.676C31.7663 18.412 29.7903 27.22 26.7423 35.6C23.8143 43.66 20.0783 50.904 16.2223 56C15.6863 56.708 15.1663 57.26 14.6423 57.868C23.8303 56.12 39.7103 54.784 58.1623 60.332ZM5.87027 59.832C6.05827 59.9 6.29427 59.912 6.55027 59.896C6.83427 59.8 7.32227 59.644 8.01427 59.436C9.44627 58.708 11.3543 57.072 13.6423 54.048C15.5463 51.532 17.4143 48.436 19.1743 44.968C15.9783 43.184 13.9183 39.796 13.9183 36.056C13.9183 30.424 18.5183 25.836 24.1743 25.836C24.9063 25.836 25.6303 25.928 26.3423 26.08C28.9663 16.18 29.0903 8.776 27.7983 5.456C27.7823 5.428 27.7663 5.404 27.7503 5.376C27.7303 5.34 27.7303 5.296 27.7103 5.26C27.3343 4.388 26.8583 3.816 26.2943 3.612C26.1143 3.544 25.9183 3.512 25.7063 3.512C22.1743 3.512 14.4263 12.524 8.45827 28.952C2.13427 46.364 2.68627 58.672 5.87027 59.832Z" fill="#4FFF96"/>
</svg>
