<svg width="7" height="10" viewBox="0 0 7 10" fill="none" xmlns="http://www.w3.org/2000/svg">
<path d="M0.759329 0.591482C0.682076 0.668576 0.620786 0.76015 0.578968 0.860961C0.53715 0.961772 0.515625 1.06984 0.515625 1.17898C0.515625 1.28812 0.53715 1.39619 0.578968 1.497C0.620786 1.59781 0.682076 1.68939 0.759329 1.76648L3.99266 4.99981L0.759329 8.23315C0.603514 8.38896 0.515978 8.60029 0.515978 8.82065C0.515978 9.041 0.603514 9.25233 0.759329 9.40815C0.915143 9.56396 1.12647 9.6515 1.34683 9.6515C1.56718 9.6515 1.77851 9.56396 1.93433 9.40815L5.75933 5.58315C5.83658 5.50605 5.89787 5.41448 5.93969 5.31367C5.98151 5.21286 6.00303 5.10479 6.00303 4.99565C6.00303 4.88651 5.98151 4.77844 5.93969 4.67763C5.89787 4.57682 5.83658 4.48524 5.75933 4.40815L1.93433 0.583148C1.61766 0.266481 1.08433 0.266482 0.759329 0.591482Z" fill="black"/>
</svg>
