<svg width="30" height="38" viewBox="0 0 30 38" fill="none" xmlns="http://www.w3.org/2000/svg">
<path d="M8.33464 23.3332H21.668M8.33464 16.6665H11.668M8.33464 29.9998H15.0013M11.668 4.99984H5.0013C4.11725 4.99984 3.2694 5.35103 2.64428 5.97615C2.01916 6.60127 1.66797 7.44912 1.66797 8.33317V33.3332C1.66797 34.2172 2.01916 35.0651 2.64428 35.6902C3.2694 36.3153 4.11725 36.6665 5.0013 36.6665H25.0013C25.8854 36.6665 26.7332 36.3153 27.3583 35.6902C27.9834 35.0651 28.3346 34.2172 28.3346 33.3332V8.33317C28.3346 7.44912 27.9834 6.60127 27.3583 5.97615C26.7332 5.35103 25.8854 4.99984 25.0013 4.99984H19.168M11.668 4.99984V1.6665M11.668 4.99984V8.33317" stroke="#37ED81" stroke-width="1.5" stroke-linecap="round" stroke-linejoin="round"/>
</svg>
