<svg width="40" height="38" viewBox="0 0 40 38" fill="none" xmlns="http://www.w3.org/2000/svg">
<path d="M5.30687 0.408038L4.10938 0.458038V31.933L5.52938 31.738C5.58188 31.7305 10.8644 31.0455 17.5994 33.7005L19.3094 34.373V3.62554L18.9869 3.27054C18.6819 2.93304 15.7094 -0.0144623 5.30687 0.408038Z" fill="#37ED81"/>
<path d="M34.4714 31.738L35.8914 31.933V0.458038L34.6939 0.408038C24.2964 -0.0144623 21.3189 2.93304 21.0139 3.27054L20.6914 3.62554V34.373L22.4014 33.7005C29.0939 31.0605 34.4214 31.7305 34.4714 31.738Z" fill="#37ED81"/>
<path d="M14.845 35.3715C12.3987 33.1973 5.6755 33.4853 2.5 33.761V6.33301H0L0.000249982 36.55L1.39675 36.3855C5.36525 35.9173 11.6465 35.8733 13.1845 37.2405C13.3795 37.414 13.396 37.5345 13.396 37.6338H15.896C15.896 36.7648 15.5325 35.9825 14.845 35.3715Z" fill="#37ED81"/>
<path d="M37.4976 6.33301V33.7608C34.3218 33.4848 27.5988 33.1973 25.1526 35.3713C24.4651 35.9823 24.1016 36.7645 24.1016 37.6335H26.6016C26.6016 37.5343 26.6178 37.4138 26.8131 37.2403C28.3511 35.873 34.6318 35.9168 38.6008 36.3853L39.9976 36.5498V6.33301H37.4976Z" fill="#37ED81"/>
</svg>
