<svg width="21" height="20" viewBox="0 0 21 20" fill="none" xmlns="http://www.w3.org/2000/svg">
<path d="M11.125 5.8335C11.125 5.66774 11.0592 5.50876 10.9419 5.39155C10.8247 5.27434 10.6658 5.2085 10.5 5.2085C10.3342 5.2085 10.1753 5.27434 10.0581 5.39155C9.94085 5.50876 9.875 5.66774 9.875 5.8335V10.0002C9.87496 10.1061 9.90185 10.2104 9.95317 10.3031C10.0045 10.3958 10.0785 10.4739 10.1683 10.5302L12.6683 12.0927C12.8089 12.1806 12.9786 12.2091 13.1402 12.172C13.2203 12.1535 13.2959 12.1195 13.3627 12.0719C13.4296 12.0243 13.4864 11.9639 13.53 11.8943C13.5736 11.8247 13.603 11.7472 13.6166 11.6663C13.6302 11.5853 13.6277 11.5024 13.6093 11.4224C13.5909 11.3424 13.5569 11.2668 13.5092 11.1999C13.4616 11.1331 13.4013 11.0762 13.3317 11.0327L11.125 9.6535V5.8335Z" fill="black"/>
<path fill-rule="evenodd" clip-rule="evenodd" d="M10.4987 2.7085C8.56483 2.7085 6.71016 3.47672 5.34271 4.84418C3.97526 6.21163 3.20703 8.06629 3.20703 10.0002C3.20703 11.934 3.97526 13.7887 5.34271 15.1561C6.71016 16.5236 8.56483 17.2918 10.4987 17.2918C12.4326 17.2918 14.2872 16.5236 15.6547 15.1561C17.0221 13.7887 17.7904 11.934 17.7904 10.0002C17.7904 8.06629 17.0221 6.21163 15.6547 4.84418C14.2872 3.47672 12.4326 2.7085 10.4987 2.7085ZM4.45703 10.0002C4.45703 9.20676 4.6133 8.42113 4.91693 7.68812C5.22055 6.95511 5.66557 6.28908 6.22659 5.72806C6.78762 5.16704 7.45364 4.72201 8.18665 4.41839C8.91966 4.11477 9.70529 3.9585 10.4987 3.9585C11.2921 3.9585 12.0777 4.11477 12.8107 4.41839C13.5438 4.72201 14.2098 5.16704 14.7708 5.72806C15.3318 6.28908 15.7768 6.95511 16.0805 7.68812C16.3841 8.42113 16.5404 9.20676 16.5404 10.0002C16.5404 11.6025 15.9038 13.1392 14.7708 14.2723C13.6378 15.4053 12.101 16.0418 10.4987 16.0418C8.89635 16.0418 7.35963 15.4053 6.22659 14.2723C5.09356 13.1392 4.45703 11.6025 4.45703 10.0002Z" fill="black"/>
</svg>
