<svg width="24" height="20" viewBox="0 0 24 20" fill="none" xmlns="http://www.w3.org/2000/svg">
<path d="M1 18.5V17.5C1 15.6435 1.7375 13.863 3.05025 12.5503C4.36301 11.2375 6.14348 10.5 8 10.5C9.85652 10.5 11.637 11.2375 12.9497 12.5503C14.2625 13.863 15 15.6435 15 17.5V18.5" stroke="black" stroke-width="1.5" stroke-linecap="round"/>
<path d="M13 12.5C13 11.1739 13.5268 9.90215 14.4645 8.96447C15.4021 8.02678 16.6739 7.5 18 7.5C18.6566 7.5 19.3068 7.62933 19.9134 7.8806C20.52 8.13188 21.0712 8.50017 21.5355 8.96447C21.9998 9.42876 22.3681 9.97996 22.6194 10.5866C22.8707 11.1932 23 11.8434 23 12.5V13" stroke="black" stroke-width="1.5" stroke-linecap="round"/>
<path d="M8 10.5C9.06087 10.5 10.0783 10.0786 10.8284 9.32843C11.5786 8.57828 12 7.56087 12 6.5C12 5.43913 11.5786 4.42172 10.8284 3.67157C10.0783 2.92143 9.06087 2.5 8 2.5C6.93913 2.5 5.92172 2.92143 5.17157 3.67157C4.42143 4.42172 4 5.43913 4 6.5C4 7.56087 4.42143 8.57828 5.17157 9.32843C5.92172 10.0786 6.93913 10.5 8 10.5ZM18 7.5C18.7956 7.5 19.5587 7.18393 20.1213 6.62132C20.6839 6.05871 21 5.29565 21 4.5C21 3.70435 20.6839 2.94129 20.1213 2.37868C19.5587 1.81607 18.7956 1.5 18 1.5C17.2044 1.5 16.4413 1.81607 15.8787 2.37868C15.3161 2.94129 15 3.70435 15 4.5C15 5.29565 15.3161 6.05871 15.8787 6.62132C16.4413 7.18393 17.2044 7.5 18 7.5Z" stroke="black" stroke-width="1.5" stroke-linecap="round" stroke-linejoin="round"/>
</svg>
