<svg width="415" height="343" viewBox="0 0 415 343" fill="none" xmlns="http://www.w3.org/2000/svg">
<path d="M103.757 168.246C102.563 165.892 102.488 163.091 103.548 160.46C104.607 157.83 106.716 155.584 109.409 154.219L251.559 82.1277C254.252 80.762 257.309 80.3876 260.058 81.087C262.807 81.7863 265.022 83.502 266.216 85.8567C267.41 88.2114 267.485 91.0121 266.426 93.6429C265.366 96.2736 263.258 98.5187 260.565 99.8844L118.414 171.975C115.721 173.341 112.664 173.716 109.915 173.016C107.167 172.317 104.952 170.601 103.757 168.246ZM148.784 257.03C147.589 254.675 147.514 251.875 148.574 249.244C149.633 246.613 151.742 244.368 154.435 243.002L296.586 170.911C299.278 169.546 302.335 169.171 305.084 169.871C307.833 170.57 310.048 172.286 311.242 174.64C312.436 176.995 312.512 179.796 311.452 182.427C310.392 185.057 308.284 187.302 305.591 188.668L163.44 260.759C160.747 262.125 157.69 262.499 154.941 261.8C152.193 261.101 149.978 259.385 148.784 257.03ZM137.573 184.583C132.187 187.314 127.97 191.805 125.851 197.066C123.731 202.327 123.882 207.929 126.271 212.638C128.659 217.348 133.089 220.779 138.586 222.178C144.083 223.576 150.197 222.828 155.583 220.096L277.427 158.304C282.813 155.573 287.029 151.082 289.149 145.821C291.268 140.559 291.117 134.958 288.729 130.249C286.34 125.539 281.91 122.108 276.413 120.709C270.916 119.31 264.802 120.059 259.416 122.791L137.573 184.583Z" fill="#F2F2F2"/>
<path d="M13.5235 191.685C9.94096 184.621 9.71446 176.218 12.8938 168.326C16.0731 160.434 22.3978 153.699 30.4765 149.601L294.471 15.718C302.55 11.621 311.721 10.4979 319.967 12.5958C328.212 14.6938 334.857 19.841 338.44 26.9051L351.948 53.5402C353.142 55.8948 353.217 58.6956 352.158 61.3263C351.098 63.957 348.99 66.2022 346.297 67.5679C338.218 71.665 331.893 78.4004 328.714 86.2926C325.535 94.1847 325.761 102.587 329.344 109.651C332.926 116.715 339.571 121.862 347.817 123.96C356.063 126.058 365.234 124.935 373.312 120.838C376.005 119.472 379.062 119.098 381.811 119.797C384.559 120.497 386.774 122.212 387.969 124.567L401.476 151.202C405.059 158.266 405.285 166.669 402.106 174.561C398.927 182.453 392.602 189.188 384.523 193.285L120.529 327.169C112.45 331.266 103.279 332.389 95.0333 330.291C86.7876 328.193 80.1425 323.046 76.56 315.982L63.0522 289.347C61.858 286.992 61.7825 284.191 62.8423 281.56C63.9021 278.93 66.0103 276.685 68.7032 275.319C76.782 271.222 83.1067 264.486 86.286 256.594C89.4653 248.702 89.2388 240.3 85.6563 233.236C82.0738 226.172 75.4288 221.024 67.183 218.926C58.9373 216.829 49.7663 217.952 41.6875 222.049C38.9946 223.414 35.9376 223.789 33.1891 223.089C30.4405 222.39 28.2255 220.674 27.0313 218.32L13.5235 191.685ZM39.4818 167.358C36.7889 168.724 34.6806 170.969 33.6208 173.6C32.5611 176.23 32.6366 179.031 33.8307 181.386L43.2862 200.03C55.7962 196.248 68.8752 196.46 80.3073 200.629C91.7394 204.799 100.821 212.671 106.014 222.911C111.208 233.151 112.192 245.129 108.802 256.816C105.412 268.503 97.8549 279.18 87.4118 287.038L96.8673 305.683C98.0615 308.038 100.276 309.753 103.025 310.453C105.774 311.152 108.831 310.778 111.524 309.412L375.518 175.529C378.211 174.163 380.319 171.918 381.379 169.287C382.439 166.656 382.363 163.856 381.169 161.501L371.714 142.856C359.204 146.639 346.125 146.427 334.693 142.257C323.261 138.087 314.179 130.216 308.985 119.976C303.792 109.736 302.807 97.7574 306.198 86.0704C309.588 74.3834 317.145 63.7063 327.588 55.8483L318.133 37.2038C316.938 34.8491 314.723 33.1334 311.975 32.434C309.226 31.7347 306.169 32.1091 303.476 33.4748L39.4818 167.358Z" fill="#F2F2F2"/>
</svg>
