<svg width="20" height="20" viewBox="0 0 20 20" fill="none" xmlns="http://www.w3.org/2000/svg">
<path d="M18 4.5C18.58 4.5 19.05 4.7 19.42 5.09C19.8 5.5 20 5.95 20 6.5V17.5C20 18.05 19.8 18.5 19.42 18.91C19.05 19.3 18.58 19.5 18 19.5H2C1.42 19.5 0.95 19.3 0.58 18.91C0.2 18.5 0 18.05 0 17.5V6.5C0 5.95 0.2 5.5 0.58 5.09C0.95 4.7 1.42 4.5 2 4.5H6V2.5C6 1.92 6.2 1.45 6.58 1.08C6.95 0.7 7.42 0.5 8 0.5H12C12.58 0.5 13.05 0.7 13.42 1.08C13.8 1.45 14 1.92 14 2.5V4.5H18ZM2 6.5V17.5H18V6.5H2ZM12 4.5V2.5H8V4.5H12Z" fill="black"/>
</svg>
