<svg width="24" height="23" viewBox="0 0 24 23" fill="none" xmlns="http://www.w3.org/2000/svg">
<path d="M15.2836 23L15.7612 19.32C16.0199 19.2242 16.2639 19.1092 16.4931 18.975C16.7224 18.8408 16.9461 18.6971 17.1642 18.5437L20.7164 19.9812L24 14.5187L20.9254 12.2762C20.9453 12.1421 20.9552 12.0125 20.9552 11.8875V11.1124C20.9552 10.9875 20.9453 10.8579 20.9254 10.7237L24 8.48125L20.7164 3.01875L17.1642 4.45625C16.9453 4.30292 16.7164 4.15917 16.4776 4.025C16.2388 3.89083 16 3.77583 15.7612 3.68L15.2836 0H8.71642L8.2388 3.68C7.9801 3.77583 7.73612 3.89083 7.50686 4.025C7.27761 4.15917 7.05393 4.30292 6.83582 4.45625L3.28358 3.01875L0 8.48125L3.07463 10.7237C3.05473 10.8579 3.04478 10.9875 3.04478 11.1124V11.8875C3.04478 12.0125 3.06467 12.1421 3.10448 12.2762L0.02985 14.5187L3.31343 19.9812L6.83582 18.5437C7.05472 18.6971 7.28358 18.8408 7.52239 18.975C7.76119 19.1092 8 19.2242 8.2388 19.32L8.71642 23H15.2836ZM11.9403 15.525C10.7861 15.525 9.80099 15.1321 8.98507 14.3463C8.16915 13.5604 7.76119 12.6117 7.76119 11.5C7.76119 10.3883 8.16915 9.43958 8.98507 8.65375C9.80099 7.86792 10.7861 7.475 11.9403 7.475C13.1144 7.475 14.1047 7.86792 14.911 8.65375C15.7174 9.43958 16.1202 10.3883 16.1194 11.5C16.1194 12.6117 15.7166 13.5604 14.911 14.3463C14.1055 15.1321 13.1152 15.525 11.9403 15.525Z" fill="green"/>
</svg>
