<svg width="23" height="23" viewBox="0 0 23 23" fill="none" xmlns="http://www.w3.org/2000/svg">
<path d="M9.63458 3.49734H3.46702C2.81273 3.49734 2.18523 3.75725 1.72257 4.21991C1.25992 4.68257 1 5.31006 1 5.96436V19.533C1 20.1873 1.25992 20.8148 1.72257 21.2774C2.18523 21.7401 2.81273 22 3.46702 22H17.0356C17.6899 22 18.3174 21.7401 18.7801 21.2774C19.2427 20.8148 19.5027 20.1873 19.5027 19.533V13.3654M17.7585 1.75315C17.9861 1.51753 18.2583 1.32958 18.5593 1.20029C18.8602 1.071 19.184 1.00294 19.5115 1.00009C19.8391 0.997247 20.164 1.05967 20.4672 1.18371C20.7703 1.30775 21.0458 1.49094 21.2774 1.72257C21.5091 1.95421 21.6922 2.22966 21.8163 2.53284C21.9403 2.83603 22.0028 3.16089 21.9999 3.48846C21.9971 3.81603 21.929 4.13975 21.7997 4.44074C21.6704 4.74172 21.4825 5.01395 21.2468 5.24152L10.6559 15.8324H7.16755V12.3441L17.7585 1.75315Z" stroke="black" stroke-width="2" stroke-linecap="round" stroke-linejoin="round"/>
</svg>
